<?xml version="1.0" encoding="utf-8"?>
<!-- Generator: Adobe Illustrator 26.3.1, SVG Export Plug-In . SVG Version: 6.00 Build 0)  -->
<svg version="1.1" id="レイヤー_1" xmlns="http://www.w3.org/2000/svg" xmlns:xlink="http://www.w3.org/1999/xlink" x="0px"
	 y="0px" viewBox="0 0 381 85" style="enable-background:new 0 0 381 85;" xml:space="preserve">
<style type="text/css">
	.st0{fill:#DAE9B7;}
	.st1{fill:none;stroke:#231916;stroke-miterlimit:10;}
	.st2{fill:#7A6A56;}
	.st3{fill:#14AE67;}
</style>
<g>
	<g>
		<path class="st0" d="M82.84,42.55c0,22.09-17.91,40-40,40s-40-17.91-40-40s17.91-40,40-40S82.84,20.46,82.84,42.55"/>
		<circle class="st1" cx="42.84" cy="42.55" r="40"/>
		<path class="st2" d="M47.75,77.52h-7.16c0,0,0.38-9.84-1.51-17.53c-1.89-7.69-6.73-7.4-11.19-10.38
			c-7.51-5.01,4.65-29.89,4.65-29.89l9.84,3.94c0,0-16.08,18.22-10.73,20.94c5.89,3,9.3,6.26,9.3,6.26s2.86,2.68,3.22,5.64
			c0.36,2.95,0.54-14.58,9.3-12.97s8.77-5.72,8.77-5.72l4.29,0.89c0,0-1.07,8.23-9.66,8.77c-8.59,0.54-7.69,15.74-7.69,15.74
			L47.75,77.52z"/>
		<path class="st1" d="M47.75,77.52h-7.16c0,0,0.38-9.84-1.51-17.53c-1.89-7.69-6.73-7.4-11.19-10.38
			c-7.51-5.01,4.65-29.89,4.65-29.89l9.84,3.94c0,0-16.08,18.22-10.73,20.94c5.89,3,9.3,6.26,9.3,6.26s2.86,2.68,3.22,5.64
			c0.36,2.95,0.54-14.58,9.3-12.97s8.77-5.72,8.77-5.72l4.29,0.89c0,0-1.07,8.23-9.66,8.77c-8.59,0.54-7.69,15.74-7.69,15.74
			L47.75,77.52z"/>
		<path class="st3" d="M17.15,56.94h30.59c0,0,1.07-11.99-3.76-12.7c-4.83-0.72-5.37,5.01-5.37,5.01s-0.18-12.52-7.16-12.34
			c-6.98,0.18-5.9,10.91-5.9,10.91s-0.89-6.44-5.01-5.73C16.44,42.8,17.15,56.94,17.15,56.94"/>
		<path class="st1" d="M17.15,56.94h30.59c0,0,1.07-11.99-3.76-12.7c-4.83-0.72-5.37,5.01-5.37,5.01s-0.18-12.52-7.16-12.34
			c-6.98,0.18-5.9,10.91-5.9,10.91s-0.89-6.44-5.01-5.73C16.44,42.8,17.15,56.94,17.15,56.94z"/>
		<path class="st3" d="M18.41,27.42H49c0,0,1.07-11.99-3.76-12.7c-4.83-0.72-5.37,5.01-5.37,5.01S39.7,7.2,32.72,7.38
			c-6.98,0.18-5.9,10.91-5.9,10.91s-0.89-6.44-5.01-5.73C17.69,13.29,18.41,27.42,18.41,27.42"/>
		<path class="st1" d="M18.41,27.42H49c0,0,1.07-11.99-3.76-12.7c-4.83-0.72-5.37,5.01-5.37,5.01S39.7,7.2,32.72,7.38
			c-6.98,0.18-5.9,10.91-5.9,10.91s-0.89-6.44-5.01-5.73C17.69,13.29,18.41,27.42,18.41,27.42z"/>
		<path class="st3" d="M46.49,44.6h30.59c0,0,1.07-11.99-3.76-12.7c-4.83-0.72-5.37,5.01-5.37,5.01s-0.18-12.52-7.16-12.34
			c-6.98,0.18-5.9,10.91-5.9,10.91s-0.89-6.44-5.01-5.73C45.78,30.47,46.49,44.6,46.49,44.6"/>
		<path class="st1" d="M46.49,44.6h30.59c0,0,1.07-11.99-3.76-12.7c-4.83-0.72-5.37,5.01-5.37,5.01s-0.18-12.52-7.16-12.34
			c-6.98,0.18-5.9,10.91-5.9,10.91s-0.89-6.44-5.01-5.73C45.78,30.47,46.49,44.6,46.49,44.6z"/>
	</g>
	<g>
		<path d="M108.77,44.73c-0.05-0.79-0.1-1.45-0.15-1.99c-0.93-0.39-1.94-0.69-3.02-0.88c-0.59-0.2-1.38-0.49-2.36-0.88
			c-1.72-0.2-2.83-0.49-3.32-0.88c-1.72-0.93-2.58-2.46-2.58-4.57c0.39-0.79,1.3-1.55,2.73-2.29c1.52-0.79,3.1-1.18,4.72-1.18
			c1.23-0.2,2.36-0.29,3.39-0.29c-0.05-1.52-0.1-2.95-0.15-4.28c0-0.79,0.29-1.77,0.88-2.95c0.98-1.33,1.99-1.99,3.02-1.99
			c0.93,0,1.65,0.76,2.14,2.29c0.54,1.38,0.81,3.69,0.81,6.93c3.39,0.2,5.33,0.79,5.82,1.77c1.92,1.72,2.88,2.85,2.88,3.39
			c0,1.38-1.03,2.63-3.1,3.76c-1.77,0.98-3.81,1.67-6.12,2.06c0,1.13,0,2.29,0,3.47c0.29,0,0.64,0.07,1.03,0.22
			c1.57,1.38,2.65,2.06,3.24,2.06c2.9,0.93,4.35,1.6,4.35,1.99c0,0.98-0.39,1.74-1.18,2.29c-1.13,0.98-2.26,1.47-3.39,1.47
			c-0.49,0-1.79-0.66-3.91-1.99c0,0.34,0.02,0.62,0.07,0.81c0.34,2.9,0.52,5.11,0.52,6.63c0,0.79-0.52,1.55-1.55,2.29
			c-0.44,0.39-0.84,0.59-1.18,0.59c-0.64,0-1.3-1.15-1.99-3.47c-0.44-1.52-0.86-3.81-1.25-6.86c-0.88,0.54-1.84,1.01-2.87,1.4
			c-1.87,1.18-3.91,1.94-6.12,2.29c-0.59,0-1.01-0.17-1.25-0.52c-0.15-0.2-0.22-0.39-0.22-0.59c0.05-0.39,1.03-1.45,2.95-3.17
			c0.74-0.59,1.4-1.18,1.99-1.77c1.18-1.13,2.33-2.36,3.46-3.69C107.72,45.61,108.28,45.12,108.77,44.73z M136.79,22.54
			c0.93,0.2,1.74,0.69,2.43,1.47c1.03,1.13,1.55,2.09,1.55,2.88c0,1.33-0.12,2.38-0.37,3.17c-0.29,0.93-0.66,1.89-1.11,2.88
			c-1.33,2.11-2.7,4.33-4.13,6.63c-0.49,1.33-1.35,2.29-2.58,2.88c-1.43,0.74-2.83,1.11-4.2,1.11c-2.36,0-3.54-1.72-3.54-5.16
			c0.34-4.03,2.41-8.35,6.19-12.98c0.54-0.59,1.45-1.15,2.73-1.7C134.89,22.93,135.9,22.54,136.79,22.54z M140.32,44.43
			c1.28,0,1.92,0.49,1.92,1.47c0,2.46-0.42,4.28-1.25,5.46c-1.77,2.51-3,4.72-3.69,6.63c0,0.54,0.59,1.01,1.77,1.4
			c1.37,0.2,3.41,0.29,6.12,0.29c0.54,0,0.81,0.59,0.81,1.77c0,1.92-3.66,2.88-10.98,2.88c-1.82,0-3.05-0.49-3.69-1.47
			c-0.74-0.93-1.11-2.19-1.11-3.76C130.82,52.76,134.18,47.87,140.32,44.43z M149.1,51.95c5.16,0.34,7.74,2.16,7.74,5.46
			c0,1.13-0.32,2.09-0.96,2.88c-0.54,0.59-1.13,0.88-1.77,0.88c-1.13,0-2.14-0.2-3.02-0.59c-0.88-0.39-1.7-0.98-2.43-1.77
			c-1.52-1.33-2.29-2.85-2.29-4.57C146.91,52.71,147.82,51.95,149.1,51.95z M149.32,26.59c2.11,0,4.5,0.76,7.15,2.29
			c1.72,1.33,2.58,2.48,2.58,3.47c0,0.93-0.39,1.79-1.18,2.58c-0.59,0.59-1.45,0.88-2.58,0.88c-3.39-0.59-5.6-1.35-6.63-2.29
			c-1.33-1.92-2.06-3.76-2.21-5.53C146.69,27.06,147.65,26.59,149.32,26.59z"/>
		<path d="M192.22,22.54c4.37,0.39,6.56,1.16,6.56,2.29c0,0.98-0.2,1.87-0.59,2.65c-0.25,0.34-0.62,0.81-1.11,1.4
			c-5.01,4.03-12.04,6.14-21.08,6.34c-0.84,0-1.92-0.29-3.24-0.88c-2.02-0.2-3.05-0.86-3.1-1.99c0-1.33,0.29-2.38,0.88-3.17
			C175.22,24.75,182.44,22.54,192.22,22.54z M183.45,41.85c2.16,0.2,4.45,0.29,6.86,0.29c2.01,0.59,3.02,1.45,3.02,2.58
			c-0.74,1.92-2.43,3.17-5.09,3.76c-2.02,0-3.71-0.1-5.09-0.29c0,1.13-0.03,2.29-0.07,3.46c0,0.54,0.29,1.3,0.88,2.29
			c0.44,0.59,1.2,0.88,2.29,0.88c1.67,0,3.39,0.1,5.16,0.29c1.23,0.2,1.89,0.76,1.99,1.7c0,0.79-0.52,1.45-1.55,1.99
			c-0.88,0.98-2.19,1.47-3.91,1.47c-3.15,0-5.41,0-6.78,0c-1.52,0-3.02-0.86-4.5-2.58c-1.13-1.38-1.84-3.02-2.14-4.94
			c0.1-2.11,0.15-3.93,0.15-5.46c0.25-1.72,0.49-4.2,0.74-7.45c0.69-1.96,2.04-3.02,4.06-3.17c0.88,0,1.82,0.47,2.8,1.4
			c0.79,0.98,1.18,1.94,1.18,2.88C183.45,41.16,183.45,41.46,183.45,41.85z M210.58,43.25c0.05,0.2,0.12,0.39,0.22,0.59
			c0.25,2.31,0.37,4.92,0.37,7.81c0,1.92-0.2,3.74-0.59,5.46c-0.15,2.51-0.86,3.96-2.14,4.35c-1.43,0-2.73-0.49-3.91-1.47
			c-0.79-1.13-1.18-2.29-1.18-3.47c0.29-4.96,0.44-8.99,0.44-12.09c0.05-0.2,0.07-0.39,0.07-0.59c-0.93,0.2-1.92,0.29-2.95,0.29
			c-0.93,0-1.84-0.29-2.73-0.88c-0.88-0.34-1.33-1.01-1.33-1.99c0-1.13,0.64-2.29,1.92-3.47c1.42-0.93,2.92-1.7,4.5-2.29
			c3.83-0.39,9.71-1.06,17.62-1.99c7.67,0,11.5,2.02,11.5,6.04c0.05,3.64,0.07,6.41,0.07,8.33c-0.49,3.44-2.51,5.26-6.04,5.46
			c-1.18,0-2.24-0.2-3.17-0.59c-0.88-0.34-1.33-0.91-1.33-1.7c0.29-0.98,1.11-2.04,2.43-3.17c0.49-0.79,0.74-2.33,0.74-4.64
			c-0.44-0.93-1.18-1.4-2.21-1.4C219.11,41.85,215,42.32,210.58,43.25z"/>
		<path d="M258.28,22.24v-0.29c-0.15-1.72-0.22-3.54-0.22-5.46c0.15-0.79,0.69-1.45,1.62-1.99c1.96-0.59,3.47-0.88,4.5-0.88
			c1.08,0.2,2.09,0.69,3.02,1.47c1.28,0.74,1.92,1.5,1.92,2.29c0,1.72-0.15,3.24-0.44,4.57c1.03,0.2,2.04,0.29,3.02,0.29
			c2.36,0.2,4.5,0.49,6.41,0.88c1.67,0.79,2.55,1.94,2.65,3.47c0,0.74-0.98,1.5-2.95,2.29c-2.31,0.39-4.3,0.59-5.97,0.59
			c-4.03,0.2-7.59,0.29-10.69,0.29c-10.76-0.59-16.14-1.84-16.14-3.76s1.79-3.17,5.38-3.76C252.8,22.24,255.43,22.24,258.28,22.24z
			 M265.8,44.14c0.29-0.59,0.61-1.15,0.96-1.7c0.84-1.72,1.33-2.97,1.47-3.76c0.2-1.18,0.54-1.94,1.03-2.29
			c0.88-1.57,1.57-2.36,2.06-2.36c1.18,0,2.36,0.49,3.54,1.47c1.13,0.93,1.7,2.09,1.7,3.47c0,0.39-0.66,1.45-1.99,3.17
			c-0.69,0.74-1.45,1.5-2.29,2.29c0.79,0.2,1.65,0.29,2.58,0.29c0.88,0,1.33,0.29,1.33,0.88c0,1.33-0.74,2.38-2.21,3.17
			c-1.47,0.34-2.9,0.71-4.28,1.11c-1.38,0.39-3.96,0.59-7.74,0.59c-2.85,0.59-5.36,0.88-7.52,0.88c-0.79,0-2.43-0.69-4.94-2.06
			c-1.23-0.54-1.84-1.3-1.84-2.29c0.54-1.13,1.79-1.79,3.76-1.99C254.03,44.63,258.82,44.33,265.8,44.14z M258.43,56.23
			c3.73-1.13,8.28-1.7,13.64-1.7c1.62,0.2,2.73,1.62,3.32,4.28c-0.15,1.38-0.22,2.83-0.22,4.35c-0.15,2.9-1.67,4.62-4.57,5.16
			c-3.98,0-6.49-0.17-7.52-0.52c-0.79-0.59-1.18-1.47-1.18-2.65c0.15-0.54,2.19-0.81,6.12-0.81c1.18,0,1.77-0.59,1.77-1.77
			c0-0.74,0-1.4,0-1.99c-0.1-0.39-0.37-0.69-0.81-0.88c-2.85,0.2-5.68,0.39-8.48,0.59c0.2,1.13,0.29,2.65,0.29,4.57
			c0,2.11-0.59,3.66-1.77,4.64c-0.39,1.13-1.99,1.7-4.79,1.7c-1.97,0-3.12-2.11-3.46-6.34c0.1-4.96,0.37-7.74,0.81-8.33
			c0.64-1.52,1.87-2.38,3.69-2.58C256.24,54.14,257.29,54.9,258.43,56.23z M255.26,33.74c1.52,0,3.24,0.69,5.16,2.06
			c1.23,1.13,1.84,2.19,1.84,3.17c0,0.93-0.39,1.79-1.18,2.58c-0.59,0.59-1.45,0.88-2.58,0.88c-2.36-0.39-3.88-1.08-4.57-2.06
			c-0.93-1.92-1.45-3.64-1.55-5.16C252.68,34.23,253.63,33.74,255.26,33.74z M299.41,49.89c0,0.98,0.34,2.14,1.03,3.47
			c0.74,1.18,1.11,2.24,1.11,3.17c0,3.44-1.67,5.16-5.01,5.16c-1.13,0-2.53-0.07-4.2-0.22c-0.49,0-0.96,0-1.4,0
			c0.39,1.52,0.61,2.85,0.66,3.98c0,1.57-0.32,2.83-0.96,3.76c-0.49,0.79-0.93,1.18-1.33,1.18c-1.97-0.79-3.74-3.39-5.31-7.81
			c-1.03-4.96-1.82-8.9-2.36-11.8c0-0.59,0.37-1.08,1.11-1.47c1.08-0.74,1.94-1.11,2.58-1.11c1.33,0.2,2.36,2.51,3.1,6.93
			c0.2,0,0.39,0.1,0.59,0.29c1.08,0.15,1.94,0.22,2.58,0.22c2.21,0,3.37-0.47,3.46-1.4c0-0.79-0.07-1.65-0.22-2.58
			c-0.34-1.18-0.52-2.04-0.52-2.58c0-0.98,0.49-2.53,1.47-4.64c0.59-1.33,1.15-2.58,1.7-3.76c0-1.52-0.96-2.38-2.88-2.58
			c-1.18,0-2.36,0.1-3.54,0.29c-0.64,0.39-1.43,0.59-2.36,0.59c-4.28,0-6.71-1.06-7.3-3.17c0-1.52,0.69-2.68,2.06-3.46
			c1.13-0.39,2.8-0.69,5.01-0.88c1.08-0.2,2.7-0.29,4.87-0.29c2.8,0,5.58,0,8.33,0c3.54,0.2,5.31,1.65,5.31,4.35
			c0,1.33-1.18,3.74-3.54,7.22c-0.88,1.13-1.82,2.36-2.8,3.69C299.83,47.8,299.41,48.95,299.41,49.89z"/>
		<path d="M337.53,26c1.08,0,1.62,0.66,1.62,1.99c0.39,2.31,0.59,4.42,0.59,6.34c0,1.38-1.16,4.45-3.46,9.21
			c-1.52,3.83-3.2,7.2-5.01,10.1c-1.13,1.18-2.51,2.04-4.13,2.58c-0.88,0.39-1.84,0.79-2.88,1.18c-0.98,0.39-1.87,0.59-2.65,0.59
			c-1.43,0-2.14-0.69-2.14-2.06c0.49-2.46,1.87-6.19,4.13-11.21c2.51-6.54,5.09-12.02,7.74-16.44c0.39-0.74,1.3-1.3,2.73-1.7
			C335.44,26.2,336.59,26,337.53,26z M377.63,26.59c0,1.92-0.69,3.64-2.06,5.16c-1.13,0.98-2.46,1.65-3.98,1.99
			c-2.8,1.18-8.21,1.77-16.22,1.77c-5.31-0.39-9.46-0.98-12.46-1.77c-1.33-0.34-1.99-0.91-1.99-1.7c0-0.59,0.37-0.88,1.11-0.88
			c1.62-0.2,6.29-0.37,14.01-0.52c3.59-0.2,6.19-0.49,7.81-0.88c0.79-0.2,1.74-0.49,2.88-0.88c0.74-0.59,1.11-1.25,1.11-1.99
			c0-0.59,0-1.08,0-1.47c-0.1-0.39-1.08-0.69-2.95-0.88c-7.72-0.54-15.41-1.01-23.07-1.4c-1.13,0-4.05-0.59-8.77-1.77
			c-2.56-0.34-3.83-1.11-3.83-2.29c0-1.33,0.96-2.58,2.88-3.76c3.59-1.33,7.89-1.99,12.9-1.99c2.6,0,6.36,0.2,11.28,0.59
			c6.34,0.39,11.23,0.96,14.67,1.7c2.31,0.39,4.03,1.08,5.16,2.06c1.28,1.33,1.92,2.38,1.92,3.17
			C377.75,22.36,377.63,24.28,377.63,26.59z M347.55,44.73c-4.77-0.59-7.15-1.45-7.15-2.58c0-1.52,1.47-2.48,4.42-2.87
			c3.93,0,8.48-0.1,13.64-0.29c2.46,0,4.67,0.1,6.64,0.29c2.21,0.2,4.2,0.47,5.97,0.81c1.52,0.59,2.33,1.47,2.43,2.65
			c0,0.74-0.88,1.3-2.65,1.7c-2.21,0.59-4.08,0.88-5.6,0.88c-3.74,0-7.03,0-9.88,0c-0.79,0-1.52-0.1-2.21-0.29
			c-0.05,0.59-0.17,1.06-0.37,1.4c-0.79,1.57-1.35,3.02-1.7,4.35c0,0.39,0.69,0.79,2.06,1.18c1.57,0.2,3.91,0.29,7,0.29
			c0.44,0,0.66,0.37,0.66,1.11c0,0.79-0.91,1.38-2.73,1.77c0.29,0.34,0.52,0.91,0.66,1.7c0.1,0.2,0.17,0.39,0.22,0.59
			c2.95-0.2,5.11-0.29,6.49-0.29c0.79,0,1.62,0.39,2.51,1.18c0.69,0.34,1.03,0.81,1.03,1.4c0,0.79-0.91,1.55-2.73,2.29
			c-1.33,0.59-3.61,1.08-6.86,1.47c-0.05,0.59-0.12,1.25-0.22,1.99c1.23,0,2.83,0.1,4.79,0.29c3.59,0.2,5.9,0.49,6.93,0.88
			c0.59,0.2,0.98,0.59,1.18,1.18c0,2.26-3.51,3.59-10.54,3.98c-5.65,0-10.76-0.2-15.33-0.59c-1.87-0.15-3.47-0.42-4.79-0.81
			c-1.18-0.39-1.84-1.18-1.99-2.36c0.05-0.74,0.59-1.4,1.62-1.99c1.08-0.39,2.11-0.59,3.1-0.59c1.92,0,4.03,0,6.34,0
			c1.33,0,2.48,0,3.46,0c0-0.74,0-1.4,0-1.99c-1.13,0.2-2.31,0.29-3.54,0.29c-1.57-0.39-2.83-0.88-3.76-1.47
			c-1.13-0.74-1.7-1.4-1.7-1.99c0-0.2,0.27-0.59,0.81-1.18c0.84-0.54,1.82-0.91,2.95-1.11c1.77,0,3.49,0,5.16,0
			c0-0.39,0-0.69,0-0.88c0.15-0.59,0.29-1.15,0.44-1.7c-1.47,0.15-3.22,0.22-5.23,0.22c-1.67,0-2.78-0.37-3.32-1.11
			c-0.69-0.79-1.03-1.74-1.03-2.88C345,48.95,345.93,46.64,347.55,44.73z M362.59,47.01c4.32,0.39,6.49,1.65,6.49,3.76
			c0,0.79-0.25,1.55-0.74,2.29c-0.44,0.39-0.91,0.59-1.4,0.59c-0.93,0-1.77-0.1-2.51-0.29c-0.79-0.39-1.47-0.86-2.06-1.4
			c-1.28-0.79-1.92-1.84-1.92-3.17C360.85,47.6,361.56,47.01,362.59,47.01z"/>
	</g>
</g>
</svg>
